{
	"asset":{
		"generator":"Khronos glTF Blender I/O v4.2.70",
		"version":"2.0"
	},
	"scene":0,
	"scenes":[
		{
			"name":"Scene",
			"nodes":[
				0,
				1,
				2
			]
		}
	],
	"nodes":[
		{
			"mesh":0,
			"name":"Plane",
			"scale":[
				16.016386032104492,
				16.016386032104492,
				16.016386032104492
			]
		},
		{
			"name":"Empty",
			"translation":[
				11,
				0,
				0
			]
		},
		{
			"name":"Empty.001",
			"translation":[
				-11,
				0,
				0
			]
		}
	],
	"materials":[
		{
			"doubleSided":true,
			"name":"Material",
			"pbrMetallicRoughness":{
				"baseColorFactor":[
					0.009952185675501823,
					0.009952185675501823,
					0.009952185675501823,
					1
				],
				"roughnessFactor":0.5
			}
		}
	],
	"meshes":[
		{
			"name":"Plane",
			"primitives":[
				{
					"attributes":{
						"POSITION":0,
						"NORMAL":1,
						"TEXCOORD_0":2
					},
					"indices":3,
					"material":0
				}
			]
		}
	],
	"accessors":[
		{
			"bufferView":0,
			"componentType":5126,
			"count":3202,
			"max":[
				0.9999999403953552,
				0.3696895241737366,
				1
			],
			"min":[
				-0.9999999403953552,
				-0.13753220438957214,
				-1
			],
			"type":"VEC3"
		},
		{
			"bufferView":1,
			"componentType":5126,
			"count":3202,
			"type":"VEC3"
		},
		{
			"bufferView":2,
			"componentType":5126,
			"count":3202,
			"type":"VEC2"
		},
		{
			"bufferView":3,
			"componentType":5123,
			"count":5766,
			"type":"SCALAR"
		}
	],
	"bufferViews":[
		{
			"buffer":0,
			"byteLength":38424,
			"byteOffset":0,
			"target":34962
		},
		{
			"buffer":0,
			"byteLength":38424,
			"byteOffset":38424,
			"target":34962
		},
		{
			"buffer":0,
			"byteLength":25616,
			"byteOffset":76848,
			"target":34962
		},
		{
			"buffer":0,
			"byteLength":11532,
			"byteOffset":102464,
			"target":34963
		}
	],
	"buffers":[
		{
			"byteLength":113996,
			"uri":"model-for-main-menu.bin"
		}
	]
}
