# Blender 4.2.3 LTS
# www.blender.org
mtllib saplingobj.mtl
o smallplant
v 0.116809 0.000000 7.460335
v 0.098028 0.000000 7.137546
v 0.133565 0.000000 7.212048
v 0.098028 0.000000 7.137546
v 0.047233 0.000000 7.521940
v 0.116809 0.000000 7.460335
v 0.047233 0.000000 7.521940
v 0.000000 0.000000 7.139566
v 0.098028 0.000000 7.137546
v 0.047233 0.000000 7.521940
v -0.046746 0.000000 7.371616
v 0.000000 0.000000 7.139566
v -0.046746 0.000000 7.371616
v -0.007685 1.047968 7.421025
v 0.047233 0.000000 7.521940
v 0.000000 0.000000 7.139566
v -0.046746 0.000000 7.371616
v -0.007685 1.047968 7.421025
v 0.000000 0.000000 7.139566
v -0.007685 1.047968 7.421025
v 0.014620 1.047968 7.141897
v -0.007685 1.047968 7.421025
v 0.014620 1.047968 7.141897
v -0.083820 2.050868 7.244055
v -0.083820 2.050868 7.244055
v -0.106575 2.050868 7.289890
v -0.007685 1.047968 7.421025
v -0.083820 2.050868 7.244055
v -0.106575 2.050868 7.289890
v 0.146236 2.582174 7.600248
v 0.146236 2.582174 7.600248
v 0.141325 2.582174 7.638626
v -0.106575 2.050868 7.289890
v 0.146236 2.582174 7.600248
v 0.141325 2.582174 7.638626
v 0.014518 2.775121 7.915527
v 0.141325 2.582174 7.638626
v 0.146348 2.582174 7.677081
v 0.014518 2.775121 7.915527
v 0.141325 2.582174 7.638626
v 0.146348 2.582174 7.677081
v -0.114335 2.050868 7.353593
v -0.106575 2.050868 7.289890
v -0.114335 2.050868 7.353593
v 0.141325 2.582174 7.638626
v -0.007685 1.047968 7.421025
v -0.114335 2.050868 7.353593
v -0.106575 2.050868 7.289890
v -0.007685 1.047968 7.421025
v -0.114335 2.050868 7.353593
v -0.032726 2.050868 7.481543
v -0.007685 1.047968 7.421025
v -0.032726 2.050868 7.481543
v 0.088056 1.051152 7.524581
v 0.047233 0.000000 7.521940
v -0.007685 1.047968 7.421025
v 0.088056 1.051152 7.524581
v 0.116809 0.000000 7.460335
v 0.088056 1.051152 7.524581
v 0.047233 0.000000 7.521940
v 0.116809 0.000000 7.460335
v 0.088056 1.051152 7.524581
v 0.139676 1.047968 7.342018
v 0.116809 0.000000 7.460335
v 0.139676 1.047968 7.342018
v 0.133565 0.000000 7.212048
v 0.133565 0.000000 7.212048
v 0.139676 1.047968 7.342018
v 0.090456 1.047968 7.161396
v 0.133565 0.000000 7.212048
v 0.090456 1.047968 7.161396
v 0.098028 0.000000 7.137546
v 0.098028 0.000000 7.137546
v 0.090456 1.047968 7.161396
v 0.000000 0.000000 7.139566
v 0.000000 0.000000 7.139566
v 0.090456 1.047968 7.161396
v 0.014620 1.047968 7.141897
v -0.083820 2.050868 7.244055
v 0.090456 1.047968 7.161396
v 0.014620 1.047968 7.141897
v -0.083820 2.050868 7.244055
v 0.090456 1.047968 7.161396
v -0.052182 2.050868 7.228440
v -0.052182 2.050868 7.228440
v 0.168765 2.582174 7.564668
v -0.083820 2.050868 7.244055
v 0.168765 2.582174 7.564668
v 0.003711 2.050868 7.295328
v -0.052182 2.050868 7.228440
v 0.168765 2.582174 7.564668
v 0.013008 2.050868 7.359963
v 0.003711 2.050868 7.295328
v 0.168765 2.582174 7.564668
v 0.217198 2.582174 7.617806
v 0.013008 2.050868 7.359963
v 0.168765 2.582174 7.564668
v 0.217198 2.582174 7.617806
v 0.056690 2.775121 7.941629
v 0.168765 2.582174 7.564668
v 0.028987 2.775121 7.887404
v 0.056690 2.775121 7.941629
v 0.014518 2.775121 7.915527
v 0.028987 2.775121 7.887404
v 0.168765 2.582174 7.564668
v 0.028987 2.775121 7.887404
v 0.121486 3.003120 8.356793
v 0.014518 2.775121 7.915527
v 0.056690 2.775121 7.941629
v 0.121486 3.003120 8.356793
v 0.028987 2.775121 7.887404
v 0.056690 2.775121 7.941629
v 0.121486 3.003120 8.356793
v 0.144091 3.003120 8.347160
v 0.121486 3.003120 8.356793
v 0.137531 3.003120 8.381497
v 0.144091 3.003120 8.347160
v 0.014518 2.775121 7.915527
v 0.137531 3.003120 8.381497
v 0.121486 3.003120 8.356793
v 0.014518 2.775121 7.915527
v 0.137531 3.003120 8.381497
v 0.042220 2.775121 7.969752
v 0.042220 2.775121 7.969752
v 0.188258 2.582174 7.713128
v 0.014518 2.775121 7.915527
v 0.056690 2.775121 7.941629
v 0.042220 2.775121 7.969752
v 0.188258 2.582174 7.713128
v 0.144091 3.003120 8.347160
v 0.042220 2.775121 7.969752
v 0.056690 2.775121 7.941629
v 0.144091 3.003120 8.347160
v 0.042220 2.775121 7.969752
v 0.137531 3.003120 8.381497
v 0.217198 2.582174 7.617806
v 0.188258 2.582174 7.713128
v 0.056690 2.775121 7.941629
v 0.217198 2.582174 7.617806
v 0.188258 2.582174 7.713128
v 0.005248 2.050868 7.423666
v -0.032726 2.050868 7.481543
v 0.005248 2.050868 7.423666
v 0.188258 2.582174 7.713128
v 0.088056 1.051152 7.524581
v 0.005248 2.050868 7.423666
v -0.032726 2.050868 7.481543
v 0.088056 1.051152 7.524581
v 0.139676 1.047968 7.342018
v 0.005248 2.050868 7.423666
v 0.139676 1.047968 7.342018
v 0.013008 2.050868 7.359963
v 0.005248 2.050868 7.423666
v 0.139676 1.047968 7.342018
v 0.013008 2.050868 7.359963
v 0.090456 1.047968 7.161396
v 0.090456 1.047968 7.161396
v 0.003711 2.050868 7.295328
v 0.013008 2.050868 7.359963
v 0.090456 1.047968 7.161396
v -0.052182 2.050868 7.228440
v 0.003711 2.050868 7.295328
v 0.013008 2.050868 7.359963
v 0.005248 2.050868 7.423666
v 0.217198 2.582174 7.617806
v -0.032726 2.050868 7.481543
v 0.188258 2.582174 7.713128
v 0.143874 2.582174 7.685937
v 0.014518 2.775121 7.915527
v 0.143874 2.582174 7.685937
v 0.188258 2.582174 7.713128
v 0.014518 2.775121 7.915527
v 0.146348 2.582174 7.677081
v 0.143874 2.582174 7.685937
v -0.114335 2.050868 7.353593
v 0.143874 2.582174 7.685937
v 0.146348 2.582174 7.677081
v -0.114335 2.050868 7.353593
v 0.143874 2.582174 7.685937
v -0.032726 2.050868 7.481543
v 0.146236 2.582174 7.600248
v 0.168765 2.582174 7.564668
v 0.014518 2.775121 7.915527
v 0.146236 2.582174 7.600248
v 0.168765 2.582174 7.564668
v -0.083820 2.050868 7.244055
vn -0.0000 -1.0000 -0.0000
vn -0.8479 0.0066 0.5301
vn -0.9793 0.0458 -0.1973
vn -0.9967 0.0141 -0.0796
vn -0.9928 -0.0894 -0.0793
vn -0.8862 -0.1449 -0.4400
vn -0.7386 0.5657 -0.3667
vn -0.8706 0.4793 -0.1114
vn -0.8978 -0.4252 -0.1149
vn -0.7602 -0.6421 0.0993
vn -0.9182 0.3775 0.1199
vn -0.8725 0.4769 -0.1063
vn -0.9863 -0.1130 -0.1201
vn -0.8419 -0.0534 0.5370
vn -0.7321 -0.0592 0.6786
vn -0.7344 0.0268 0.6782
vn 0.6627 -0.0276 0.7484
vn 0.9623 0.0097 0.2719
vn 0.9976 -0.0142 0.0673
vn 0.9645 0.0270 -0.2628
vn 0.9025 0.0163 -0.4305
vn -0.0206 0.0226 -0.9995
vn 0.2490 -0.0013 -0.9685
vn 0.2472 0.1222 -0.9612
vn -0.4426 -0.0030 -0.8967
vn -0.3538 0.6008 -0.7169
vn 0.7645 0.0863 -0.6388
vn 0.9635 -0.2291 -0.1386
vn 0.7384 0.0428 -0.6730
vn 0.3674 0.8677 -0.3349
vn 0.5161 0.8149 -0.2637
vn -0.8828 0.1202 -0.4542
vn -0.5414 0.7932 -0.2786
vn 0.7719 0.4987 -0.3943
vn -0.1915 0.8726 -0.4493
vn -0.0000 1.0000 -0.0000
vn -0.6997 -0.5512 0.4544
vn -0.8123 -0.4099 0.4150
vn -0.5485 -0.7878 0.2802
vn 0.8874 0.0644 0.4566
vn 0.5821 -0.7559 0.2995
vn 0.7860 -0.5997 0.1502
vn 0.9144 0.2947 0.2776
vn 0.8600 -0.4385 0.2611
vn 0.7211 -0.5061 0.4731
vn 0.8297 0.1237 0.5444
vn 0.9573 0.1064 0.2688
vn 0.9852 0.1223 0.1200
vn 0.9572 0.1256 -0.2608
vn 0.9844 0.1041 -0.1416
vn 0.7586 0.1503 -0.6339
vn 0.9085 -0.4029 0.1107
vn -0.5163 -0.1526 0.8427
vn -0.3087 -0.8067 0.5040
vn -0.9158 -0.3095 -0.2558
vn -0.8126 0.5369 -0.2270
vn -0.8408 0.0732 0.5363
vn -0.8098 0.2851 -0.5128
vn -0.6842 0.5867 -0.4332
s 0
usemtl mat_0
f 3//1 1//1 2//1
f 6//1 5//1 4//1
f 9//1 7//1 8//1
f 12//1 10//1 11//1
f 15//2 14//2 13//2
f 18//3 16//3 17//3
f 21//4 19//4 20//4
f 24//5 23//5 22//5
f 27//6 26//6 25//6
f 30//7 28//7 29//7
f 33//8 32//8 31//8
f 36//9 34//9 35//9
f 39//10 37//10 38//10
s 1
f 42//11 41//11 40//11
s 0
f 45//12 43//12 44//12
f 48//13 46//13 47//13
f 51//14 50//14 49//14
f 54//15 53//15 52//15
f 57//16 56//16 55//16
f 60//17 58//17 59//17
f 63//18 62//18 61//18
f 66//19 65//19 64//19
f 69//20 68//20 67//20
f 72//21 71//21 70//21
f 75//22 74//22 73//22
f 78//23 77//23 76//23
f 81//24 79//24 80//24
f 84//25 83//25 82//25
f 87//26 86//26 85//26
f 90//27 88//27 89//27
f 93//28 91//28 92//28
f 96//29 94//29 95//29
f 99//30 98//30 97//30
f 102//31 100//31 101//31
f 105//32 103//32 104//32
f 108//33 107//33 106//33
f 111//34 110//34 109//34
s 1
f 114//35 112//35 113//35
s 0
f 117//36 115//36 116//36
s 1
f 120//37 118//37 119//37
s 0
f 123//38 122//38 121//38
f 126//39 125//39 124//39
f 129//40 127//40 128//40
f 132//41 130//41 131//41
f 135//42 134//42 133//42
f 138//43 137//43 136//43
f 141//44 139//44 140//44
s 1
f 144//45 142//45 143//45
s 0
f 147//46 145//46 146//46
f 150//47 148//47 149//47
f 153//48 151//48 152//48
f 156//49 155//49 154//49
f 159//50 157//50 158//50
f 162//51 160//51 161//51
f 165//52 164//52 163//52
f 168//53 166//53 167//53
f 171//54 169//54 170//54
f 174//55 172//55 173//55
f 177//56 175//56 176//56
f 180//57 179//57 178//57
f 183//58 182//58 181//58
f 186//59 184//59 185//59
o leaf
v -0.013050 2.057135 7.322927
v -0.013050 2.057135 7.322927
v -0.008139 2.057135 7.284550
v -0.013050 2.057135 7.322927
v -0.008139 2.057135 7.284550
v 0.118668 2.250083 7.007648
v -0.008139 2.057135 7.284550
v -0.013162 2.057135 7.246095
v 0.118668 2.250083 7.007648
v -0.008139 2.057135 7.284550
v -0.013162 2.057135 7.246095
v -0.008139 2.057135 7.284550
v -0.035579 2.057135 7.358507
v -0.035579 2.057135 7.358507
v -0.035579 2.057135 7.358507
v -0.035579 2.057135 7.358507
v -0.084012 2.057135 7.305369
v -0.035579 2.057135 7.358507
v -0.084012 2.057135 7.305369
v 0.076496 2.250083 6.981545
v -0.035579 2.057135 7.358507
v 0.104199 2.250083 7.035771
v 0.076496 2.250083 6.981545
v 0.118668 2.250083 7.007648
v 0.104199 2.250083 7.035771
v -0.035579 2.057135 7.358507
v 0.104199 2.250083 7.035771
v 0.011700 2.478082 6.566382
v 0.118668 2.250083 7.007648
v 0.076496 2.250083 6.981545
v 0.011700 2.478082 6.566382
v 0.104199 2.250083 7.035771
v 0.076496 2.250083 6.981545
v 0.011700 2.478082 6.566382
v -0.010905 2.478082 6.576015
v 0.011700 2.478082 6.566382
v -0.004345 2.478082 6.541677
v -0.010905 2.478082 6.576015
v 0.118668 2.250083 7.007648
v -0.004345 2.478082 6.541677
v 0.011700 2.478082 6.566382
v 0.118668 2.250083 7.007648
v -0.004345 2.478082 6.541677
v 0.090966 2.250083 6.953423
v 0.090966 2.250083 6.953423
v -0.055072 2.057135 7.210048
v 0.118668 2.250083 7.007648
v 0.076496 2.250083 6.981545
v 0.090966 2.250083 6.953423
v -0.055072 2.057135 7.210048
v -0.010905 2.478082 6.576015
v 0.090966 2.250083 6.953423
v 0.076496 2.250083 6.981545
v -0.010905 2.478082 6.576015
v 0.090966 2.250083 6.953423
v -0.004345 2.478082 6.541677
v -0.084012 2.057135 7.305369
v -0.055072 2.057135 7.210048
v 0.076496 2.250083 6.981545
v -0.084012 2.057135 7.305369
v -0.055072 2.057135 7.210048
v -0.055072 2.057135 7.210048
v -0.084012 2.057135 7.305369
v -0.055072 2.057135 7.210048
v -0.010688 2.057135 7.237238
v 0.118668 2.250083 7.007648
v -0.010688 2.057135 7.237238
v -0.055072 2.057135 7.210048
v 0.118668 2.250083 7.007648
v -0.013162 2.057135 7.246095
v -0.010688 2.057135 7.237238
v -0.010688 2.057135 7.237238
v -0.013162 2.057135 7.246095
v -0.010688 2.057135 7.237238
v -0.013050 2.057135 7.322927
v -0.035579 2.057135 7.358507
v 0.118668 2.250083 7.007648
v -0.013050 2.057135 7.322927
v -0.035579 2.057135 7.358507
vn 0.8978 -0.4252 0.1149
vn 0.7602 -0.6421 -0.0993
vn -0.3674 0.8677 0.3349
vn -0.5161 0.8149 0.2637
vn 0.8828 0.1202 0.4542
vn 0.5414 0.7932 0.2786
vn -0.7719 0.4987 0.3943
vn 0.1915 0.8726 0.4493
vn -0.0000 1.0000 -0.0000
vn 0.6997 -0.5512 -0.4544
vn 0.8123 -0.4099 -0.4150
vn 0.5485 -0.7878 -0.2802
vn -0.8874 0.0644 -0.4566
vn -0.5821 -0.7559 -0.2995
vn -0.7860 -0.5997 -0.1502
vn -0.9144 0.2947 -0.2776
vn 0.3087 -0.8067 -0.5040
vn 0.9158 -0.3095 0.2558
vn 0.8098 0.2851 0.5128
s 0
usemtl mat_0
f 192//60 190//60 191//60
f 195//61 193//61 194//61
f 206//62 205//62 204//62
f 209//63 207//63 208//63
f 212//64 210//64 211//64
f 215//65 214//65 213//65
f 218//66 217//66 216//66
s 1
f 221//67 219//67 220//67
s 0
f 224//68 222//68 223//68
s 1
f 227//69 225//69 226//69
s 0
f 230//70 229//70 228//70
f 233//71 232//71 231//71
f 236//72 234//72 235//72
f 239//73 237//73 238//73
f 242//74 241//74 240//74
f 245//75 244//75 243//75
f 254//76 252//76 253//76
f 257//77 255//77 256//77
f 263//78 262//78 261//78
l 188 189
l 196 197
l 202 203
l 246 247
l 250 251
l 258 259
l 264 265
