# Blender 4.2.3 LTS
# www.blender.org
mtllib trees2.mtl
o trunk
v 0.227661 0.000000 0.625180
v 0.191057 0.000000 -0.003937
v 0.260320 0.000000 0.141267
v 0.191057 0.000000 -0.003937
v 0.092058 0.000000 0.745250
v 0.227661 0.000000 0.625180
v 0.092058 0.000000 0.745250
v 0.000000 0.000000 0.000000
v 0.191057 0.000000 -0.003937
v 0.092058 0.000000 0.745250
v -0.091108 0.000000 0.452268
v 0.000000 0.000000 0.000000
v -0.091108 0.000000 0.452268
v -0.014978 2.042496 0.548566
v 0.092058 0.000000 0.745250
v 0.000000 0.000000 0.000000
v -0.091108 0.000000 0.452268
v -0.014978 2.042496 0.548566
v 0.000000 0.000000 0.000000
v -0.014978 2.042496 0.548566
v 0.028494 2.042496 0.004542
v -0.014978 2.042496 0.548566
v 0.028494 2.042496 0.004542
v -0.163366 3.997154 0.203649
v -0.163366 3.997154 0.203649
v -0.207715 3.997154 0.292982
v -0.014978 2.042496 0.548566
v -0.163366 3.997154 0.203649
v -0.207715 3.997154 0.292982
v 0.285014 5.032673 0.897873
v 0.285014 5.032673 0.897873
v 0.275443 5.032673 0.972671
v -0.207715 3.997154 0.292982
v 0.285014 5.032673 0.897873
v 0.275443 5.032673 0.972671
v 0.028295 5.408730 1.512353
v 0.275443 5.032673 0.972671
v 0.285234 5.032673 1.047620
v 0.028295 5.408730 1.512353
v 0.275443 5.032673 0.972671
v 0.285234 5.032673 1.047620
v -0.222839 3.997154 0.417140
v -0.207715 3.997154 0.292982
v -0.222839 3.997154 0.417140
v 0.275443 5.032673 0.972671
v -0.014978 2.042496 0.548566
v -0.222839 3.997154 0.417140
v -0.207715 3.997154 0.292982
v -0.014978 2.042496 0.548566
v -0.222839 3.997154 0.417140
v -0.063783 3.997154 0.666516
v -0.014978 2.042496 0.548566
v -0.063783 3.997154 0.666516
v 0.171622 2.048703 0.750398
v 0.092058 0.000000 0.745250
v -0.014978 2.042496 0.548566
v 0.171622 2.048703 0.750398
v 0.227661 0.000000 0.625180
v 0.171622 2.048703 0.750398
v 0.092058 0.000000 0.745250
v 0.227661 0.000000 0.625180
v 0.171622 2.048703 0.750398
v 0.272229 2.042496 0.394580
v 0.227661 0.000000 0.625180
v 0.272229 2.042496 0.394580
v 0.260320 0.000000 0.141267
v 0.260320 0.000000 0.141267
v 0.272229 2.042496 0.394580
v 0.176298 2.042496 0.042547
v 0.260320 0.000000 0.141267
v 0.176298 2.042496 0.042547
v 0.191057 0.000000 -0.003937
v 0.191057 0.000000 -0.003937
v 0.176298 2.042496 0.042547
v 0.000000 0.000000 0.000000
v 0.000000 0.000000 0.000000
v 0.176298 2.042496 0.042547
v 0.028494 2.042496 0.004542
v -0.163366 3.997154 0.203649
v 0.176298 2.042496 0.042547
v 0.028494 2.042496 0.004542
v -0.163366 3.997154 0.203649
v 0.176298 2.042496 0.042547
v -0.101702 3.997154 0.173215
v -0.101702 3.997154 0.173215
v 0.328925 5.032673 0.828527
v -0.163366 3.997154 0.203649
v 0.328925 5.032673 0.828527
v 0.007233 3.997154 0.303581
v -0.101702 3.997154 0.173215
v 0.328925 5.032673 0.828527
v 0.025352 3.997154 0.429556
v 0.007233 3.997154 0.303581
v 0.328925 5.032673 0.828527
v 0.423321 5.032673 0.932092
v 0.025352 3.997154 0.429556
v 0.328925 5.032673 0.828527
v 0.423321 5.032673 0.932092
v 0.110489 5.408730 1.563227
v 0.328925 5.032673 0.828527
v 0.056497 5.408730 1.457542
v 0.110489 5.408730 1.563227
v 0.028295 5.408730 1.512353
v 0.056497 5.408730 1.457542
v 0.328925 5.032673 0.828527
v 0.056497 5.408730 1.457542
v 0.236778 5.853101 2.372384
v 0.028295 5.408730 1.512353
v 0.110489 5.408730 1.563227
v 0.236778 5.853101 2.372384
v 0.056497 5.408730 1.457542
v 0.110489 5.408730 1.563227
v 0.236778 5.853101 2.372384
v 0.280834 5.853101 2.353609
v 0.236778 5.853101 2.372384
v 0.268048 5.853101 2.420533
v 0.280834 5.853101 2.353609
v 0.028295 5.408730 1.512353
v 0.268048 5.853101 2.420533
v 0.236778 5.853101 2.372384
v 0.028295 5.408730 1.512353
v 0.268048 5.853101 2.420533
v 0.082288 5.408730 1.618038
v 0.082288 5.408730 1.618038
v 0.366917 5.032673 1.117875
v 0.028295 5.408730 1.512353
v 0.110489 5.408730 1.563227
v 0.082288 5.408730 1.618038
v 0.366917 5.032673 1.117875
v 0.280834 5.853101 2.353609
v 0.082288 5.408730 1.618038
v 0.110489 5.408730 1.563227
v 0.280834 5.853101 2.353609
v 0.082288 5.408730 1.618038
v 0.268048 5.853101 2.420533
v 0.423321 5.032673 0.932092
v 0.366917 5.032673 1.117875
v 0.110489 5.408730 1.563227
v 0.423321 5.032673 0.932092
v 0.366917 5.032673 1.117875
v 0.010229 3.997154 0.553714
v -0.063783 3.997154 0.666516
v 0.010229 3.997154 0.553714
v 0.366917 5.032673 1.117875
v 0.171622 2.048703 0.750398
v 0.010229 3.997154 0.553714
v -0.063783 3.997154 0.666516
v 0.171622 2.048703 0.750398
v 0.272229 2.042496 0.394580
v 0.010229 3.997154 0.553714
v 0.272229 2.042496 0.394580
v 0.025352 3.997154 0.429556
v 0.010229 3.997154 0.553714
v 0.272229 2.042496 0.394580
v 0.025352 3.997154 0.429556
v 0.176298 2.042496 0.042547
v 0.176298 2.042496 0.042547
v 0.007233 3.997154 0.303581
v 0.025352 3.997154 0.429556
v 0.176298 2.042496 0.042547
v -0.101702 3.997154 0.173215
v 0.007233 3.997154 0.303581
v 0.025352 3.997154 0.429556
v 0.010229 3.997154 0.553714
v 0.423321 5.032673 0.932092
v -0.063783 3.997154 0.666516
v 0.366917 5.032673 1.117875
v 0.280412 5.032673 1.064881
v 0.028295 5.408730 1.512353
v 0.280412 5.032673 1.064881
v 0.366917 5.032673 1.117875
v 0.028295 5.408730 1.512353
v 0.285234 5.032673 1.047620
v 0.280412 5.032673 1.064881
v -0.222839 3.997154 0.417140
v 0.280412 5.032673 1.064881
v 0.285234 5.032673 1.047620
v -0.222839 3.997154 0.417140
v 0.280412 5.032673 1.064881
v -0.063783 3.997154 0.666516
v 0.285014 5.032673 0.897873
v 0.328925 5.032673 0.828527
v 0.028295 5.408730 1.512353
v 0.285014 5.032673 0.897873
v 0.328925 5.032673 0.828527
v -0.163366 3.997154 0.203649
vn -0.0000 -1.0000 -0.0000
vn -0.8479 0.0066 0.5301
vn -0.9793 0.0458 -0.1973
vn -0.9967 0.0141 -0.0796
vn -0.9928 -0.0894 -0.0793
vn -0.8862 -0.1449 -0.4400
vn -0.7386 0.5657 -0.3667
vn -0.8706 0.4793 -0.1114
vn -0.8978 -0.4252 -0.1149
vn -0.7602 -0.6421 0.0993
vn -0.9182 0.3775 0.1199
vn -0.8725 0.4769 -0.1063
vn -0.9863 -0.1130 -0.1201
vn -0.8419 -0.0534 0.5370
vn -0.7321 -0.0592 0.6786
vn -0.7344 0.0268 0.6782
vn 0.6627 -0.0276 0.7484
vn 0.9623 0.0097 0.2719
vn 0.9976 -0.0142 0.0673
vn 0.9645 0.0270 -0.2628
vn 0.9025 0.0163 -0.4305
vn -0.0206 0.0226 -0.9995
vn 0.2490 -0.0013 -0.9685
vn 0.2472 0.1222 -0.9612
vn -0.4426 -0.0030 -0.8967
vn -0.3538 0.6008 -0.7169
vn 0.7645 0.0863 -0.6388
vn 0.9635 -0.2291 -0.1386
vn 0.7384 0.0428 -0.6730
vn 0.3674 0.8677 -0.3349
vn 0.5161 0.8149 -0.2637
vn -0.8828 0.1202 -0.4542
vn -0.5414 0.7932 -0.2786
vn 0.7719 0.4987 -0.3943
vn -0.1915 0.8726 -0.4493
vn -0.0000 1.0000 -0.0000
vn -0.6997 -0.5512 0.4544
vn -0.8123 -0.4099 0.4150
vn -0.5485 -0.7878 0.2802
vn 0.8874 0.0644 0.4566
vn 0.5821 -0.7559 0.2995
vn 0.7860 -0.5997 0.1502
vn 0.9144 0.2947 0.2776
vn 0.8600 -0.4385 0.2611
vn 0.7211 -0.5061 0.4731
vn 0.8297 0.1237 0.5444
vn 0.9573 0.1064 0.2688
vn 0.9852 0.1223 0.1200
vn 0.9572 0.1256 -0.2608
vn 0.9844 0.1041 -0.1416
vn 0.7586 0.1503 -0.6339
vn 0.9085 -0.4029 0.1107
vn -0.5163 -0.1526 0.8427
vn -0.3087 -0.8067 0.5040
vn -0.9158 -0.3095 -0.2558
vn -0.8126 0.5369 -0.2270
vn -0.8408 0.0732 0.5363
vn -0.8098 0.2851 -0.5128
vn -0.6842 0.5867 -0.4332
s 0
usemtl Material.001
f 3//1 1//1 2//1
f 6//1 5//1 4//1
f 9//1 7//1 8//1
f 12//1 10//1 11//1
f 15//2 14//2 13//2
f 18//3 16//3 17//3
f 21//4 19//4 20//4
f 24//5 23//5 22//5
f 27//6 26//6 25//6
f 30//7 28//7 29//7
f 33//8 32//8 31//8
f 36//9 34//9 35//9
f 39//10 37//10 38//10
s 1
f 42//11 41//11 40//11
s 0
f 45//12 43//12 44//12
f 48//13 46//13 47//13
f 51//14 50//14 49//14
f 54//15 53//15 52//15
f 57//16 56//16 55//16
f 60//17 58//17 59//17
f 63//18 62//18 61//18
f 66//19 65//19 64//19
f 69//20 68//20 67//20
f 72//21 71//21 70//21
f 75//22 74//22 73//22
f 78//23 77//23 76//23
f 81//24 79//24 80//24
f 84//25 83//25 82//25
f 87//26 86//26 85//26
f 90//27 88//27 89//27
f 93//28 91//28 92//28
f 96//29 94//29 95//29
f 99//30 98//30 97//30
f 102//31 100//31 101//31
f 105//32 103//32 104//32
f 108//33 107//33 106//33
f 111//34 110//34 109//34
s 1
f 114//35 112//35 113//35
s 0
f 117//36 115//36 116//36
s 1
f 120//37 118//37 119//37
s 0
f 123//38 122//38 121//38
f 126//39 125//39 124//39
f 129//40 127//40 128//40
f 132//41 130//41 131//41
f 135//42 134//42 133//42
f 138//43 137//43 136//43
f 141//44 139//44 140//44
s 1
f 144//45 142//45 143//45
s 0
f 147//46 145//46 146//46
f 150//47 148//47 149//47
f 153//48 151//48 152//48
f 156//49 155//49 154//49
f 159//50 157//50 158//50
f 162//51 160//51 161//51
f 165//52 164//52 163//52
f 168//53 166//53 167//53
f 171//54 169//54 170//54
f 174//55 172//55 173//55
f 177//56 175//56 176//56
f 180//57 179//57 178//57
f 183//58 182//58 181//58
f 186//59 184//59 185//59
o leaves1
v -1.462009 5.392577 -1.081915
v -1.843884 4.665359 1.173735
v -2.061064 6.828454 1.474694
v -1.462009 5.392577 -1.081915
v -0.329037 3.708274 -0.588109
v -1.843884 4.665359 1.173735
v -1.462009 5.392577 -1.081915
v 0.693015 6.115254 -1.384129
v -0.329037 3.708274 -0.588109
v -1.462009 5.392577 -1.081915
v -0.246916 8.031219 0.886113
v 0.693015 6.115254 -1.384129
v -1.462009 5.392577 -1.081915
v -0.246916 8.031219 0.886113
v -2.061064 6.828454 1.474694
v -2.061064 6.828454 1.474694
v -0.246916 8.031219 0.886113
v 1.038932 6.445450 3.130026
v 1.038932 6.445450 3.130026
v -0.608201 4.901900 3.313442
v -2.061064 6.828454 1.474694
v 1.038932 6.445450 3.130026
v -0.608201 4.901900 3.313442
v 1.995710 4.779497 2.288379
v 1.995710 4.779497 2.288379
v 0.219244 3.374527 2.138016
v -0.608201 4.901900 3.313442
v -0.329037 3.708274 -0.588109
v 0.219244 3.374527 2.138016
v 1.995710 4.779497 2.288379
v -0.329037 3.708274 -0.588109
v 0.219244 3.374527 2.138016
v -1.843884 4.665359 1.173735
v -1.843884 4.665359 1.173735
v -0.608201 4.901900 3.313442
v 0.219244 3.374527 2.138016
v -2.061064 6.828454 1.474694
v -0.608201 4.901900 3.313442
v -1.843884 4.665359 1.173735
v 1.995710 4.779497 2.288379
v 1.715653 4.680501 -0.496497
v -0.329037 3.708274 -0.588109
v 1.715653 4.680501 -0.496497
v 1.126541 6.937561 0.263791
v 1.995710 4.779497 2.288379
v 0.693015 6.115254 -1.384129
v 1.126541 6.937561 0.263791
v 1.715653 4.680501 -0.496497
v 0.693015 6.115254 -1.384129
v -0.246916 8.031219 0.886113
v 1.126541 6.937561 0.263791
v 1.038932 6.445450 3.130026
v 1.126541 6.937561 0.263791
v -0.246916 8.031219 0.886113
v 1.038932 6.445450 3.130026
v 1.995710 4.779497 2.288379
v 1.126541 6.937561 0.263791
v -0.329037 3.708274 -0.588109
v 1.715653 4.680501 -0.496497
v 0.693015 6.115254 -1.384129
vn -0.9793 -0.0720 -0.1890
vn -0.7416 -0.5916 -0.3163
vn -0.0326 -0.3013 -0.9530
vn -0.3162 0.6564 -0.6849
vn -0.5857 0.6403 -0.4969
vn -0.2603 0.7119 0.6523
vn -0.3649 0.4839 0.7954
vn 0.3432 -0.2590 0.9028
vn 0.3035 -0.4724 0.8275
vn 0.6168 -0.7567 -0.2167
vn -0.5315 -0.8471 0.0032
vn -0.6146 -0.6625 0.4282
vn -0.8479 -0.1556 0.5069
vn 0.4298 -0.9029 -0.0111
vn 0.9528 0.2844 -0.1059
vn 0.8451 0.3552 -0.3996
vn 0.3954 0.7761 -0.4913
vn 0.6561 0.7402 0.1471
vn 0.8844 0.4548 0.1051
vn 0.2259 -0.3910 -0.8922
s 0
usemtl mat_0
f 189//60 187//60 188//60
f 192//61 190//61 191//61
f 195//62 193//62 194//62
f 198//63 196//63 197//63
f 201//64 200//64 199//64
f 204//65 203//65 202//65
f 207//66 206//66 205//66
f 210//67 208//67 209//67
f 213//68 212//68 211//68
f 216//69 215//69 214//69
f 219//70 217//70 218//70
f 222//71 221//71 220//71
f 225//72 224//72 223//72
f 228//73 227//73 226//73
f 231//74 229//74 230//74
f 234//75 232//75 233//75
f 237//76 235//76 236//76
f 240//77 238//77 239//77
f 243//78 241//78 242//78
f 246//79 245//79 244//79
o leaves2
v -1.289979 5.000745 0.714728
v -1.595375 5.433030 -0.916496
v -1.769060 4.134638 -1.129261
v -1.289979 5.000745 0.714728
v -0.383908 6.010437 0.354328
v -1.595375 5.433030 -0.916496
v -1.289979 5.000745 0.714728
v 0.433457 4.567683 0.934631
v -0.383908 6.010437 0.354328
v -1.289979 5.000745 0.714728
v -0.318233 3.414038 -0.701428
v 0.433457 4.567683 0.934631
v -1.289979 5.000745 0.714728
v -0.318233 3.414038 -0.701428
v -1.769060 4.134638 -1.129261
v -1.769060 4.134638 -1.129261
v -0.318233 3.414038 -0.701428
v 0.710097 4.361471 -2.326026
v 0.710097 4.361471 -2.326026
v -0.607164 5.287268 -2.461873
v -1.769060 4.134638 -1.129261
v 0.710097 4.361471 -2.326026
v -0.607164 5.287268 -2.461873
v 1.475260 5.362548 -1.721553
v 1.475260 5.362548 -1.721553
v 0.054569 6.205796 -1.615954
v -0.607164 5.287268 -2.461873
v -0.383908 6.010437 0.354328
v 0.054569 6.205796 -1.615954
v 1.475260 5.362548 -1.721553
v -0.383908 6.010437 0.354328
v 0.054569 6.205796 -1.615954
v -1.595375 5.433030 -0.916496
v -1.595375 5.433030 -0.916496
v -0.607164 5.287268 -2.461873
v 0.054569 6.205796 -1.615954
v -1.769060 4.134638 -1.129261
v -0.607164 5.287268 -2.461873
v -1.595375 5.433030 -0.916496
v 1.475260 5.362548 -1.721553
v 1.251291 5.426939 0.290240
v -0.383908 6.010437 0.354328
v 1.251291 5.426939 0.290240
v 0.780161 4.071346 -0.254176
v 1.475260 5.362548 -1.721553
v 0.433457 4.567683 0.934631
v 0.780161 4.071346 -0.254176
v 1.251291 5.426939 0.290240
v 0.433457 4.567683 0.934631
v -0.318233 3.414038 -0.701428
v 0.780161 4.071346 -0.254176
v 0.710097 4.361471 -2.326026
v 0.780161 4.071346 -0.254176
v -0.318233 3.414038 -0.701428
v 0.710097 4.361471 -2.326026
v 1.475260 5.362548 -1.721553
v 0.780161 4.071346 -0.254176
v -0.383908 6.010437 0.354328
v 1.251291 5.426939 0.290240
v 0.433457 4.567683 0.934631
vn -0.9734 0.0962 0.2077
vn -0.6517 0.6940 0.3059
vn -0.0289 0.3589 0.9329
vn -0.2636 -0.7272 0.6339
vn -0.4999 -0.7267 0.4712
vn -0.2132 -0.7792 -0.5894
vn -0.3170 -0.5630 -0.7633
vn 0.3089 0.3074 -0.9001
vn 0.2636 0.5438 -0.7967
vn 0.5112 0.8366 0.1967
vn -0.4259 0.9048 -0.0051
vn -0.5230 0.7499 -0.4052
vn -0.8172 0.1980 -0.5413
vn 0.3363 0.9417 0.0073
vn 0.9232 -0.3668 0.1145
vn 0.7938 -0.4432 0.4165
vn 0.3206 -0.8372 0.4430
vn 0.5485 -0.8253 -0.1341
vn 0.8200 -0.5624 -0.1065
vn 0.1982 0.4603 0.8653
s 1
usemtl mat_0
f 249//80 247//80 248//80
s 0
f 252//81 250//81 251//81
f 255//82 253//82 254//82
f 258//83 256//83 257//83
f 261//84 260//84 259//84
f 264//85 263//85 262//85
s 1
f 267//86 266//86 265//86
s 0
f 270//87 268//87 269//87
s 1
f 273//88 272//88 271//88
s 0
f 276//89 275//89 274//89
f 279//90 277//90 278//90
f 282//91 281//91 280//91
f 285//92 284//92 283//92
f 288//93 287//93 286//93
f 291//94 289//94 290//94
f 294//95 292//95 293//95
f 297//96 295//96 296//96
f 300//97 298//97 299//97
f 303//98 301//98 302//98
f 306//99 305//99 304//99
